# xmcd CD database file
#
# Track frame offsets:
#	220
#	15512
#	36597
#	54983
#	70463
#	86125
#	99892
#	111882
#	128686
#	154148
#	166522
#
# Disc length: 2513 seconds
#
# Revision: 0
# Processed by: cddbd v1.4PL0 Copyright (c) Steve Scherf et al.
# Submitted via: CDex 1.40Release
#
DISCID=8409cf0b
DTITLE=Mr. downchild - Behind the sun
DYEAR=2000
DGENRE=Blues
TTITLE0=Angel on my shoulder
TTITLE1=Bad uncle blues
TTITLE2=Take me back to mississippi
TTITLE3=Travelin' man
TTITLE4=On my way back home
TTITLE5=Workin' for the boss
TTITLE6=Chewin' gum blues
TTITLE7=Mississippi blues
TTITLE8=Behind the sun
TTITLE9=Shoestring boogie
TTITLE10=Money in your pants
EXTD=YEAR: 2000 ID3G: 0
EXTT0=
EXTT1=
EXTT2=
EXTT3=
EXTT4=
EXTT5=
EXTT6=
EXTT7=
EXTT8=
EXTT9=
EXTT10=
PLAYORDER=
